<svg xmlns="http://www.w3.org/2000/svg" width="1024" height="1024" viewBox="0 0 1024 1024">
  <defs>
    <linearGradient id="g0" x1="512.00" y1="214.00" x2="722.72" y2="301.28" gradientUnits="userSpaceOnUse">
      <stop offset="0" stop-color="#E8899A"/>
      <stop offset="1" stop-color="#EFB07E"/>
    </linearGradient>
    <linearGradient id="g1" x1="722.72" y1="301.28" x2="810.00" y2="512.00" gradientUnits="userSpaceOnUse">
      <stop offset="0" stop-color="#EFB07E"/>
      <stop offset="1" stop-color="#E3D07A"/>
    </linearGradient>
    <linearGradient id="g2" x1="810.00" y1="512.00" x2="722.72" y2="722.72" gradientUnits="userSpaceOnUse">
      <stop offset="0" stop-color="#E3D07A"/>
      <stop offset="1" stop-color="#86C98F"/>
    </linearGradient>
    <linearGradient id="g3" x1="722.72" y1="722.72" x2="512.00" y2="810.00" gradientUnits="userSpaceOnUse">
      <stop offset="0" stop-color="#86C98F"/>
      <stop offset="1" stop-color="#6FC7C6"/>
    </linearGradient>
    <linearGradient id="g4" x1="512.00" y1="810.00" x2="301.28" y2="722.72" gradientUnits="userSpaceOnUse">
      <stop offset="0" stop-color="#6FC7C6"/>
      <stop offset="1" stop-color="#7FA6DE"/>
    </linearGradient>
    <linearGradient id="g5" x1="301.28" y1="722.72" x2="214.00" y2="512.00" gradientUnits="userSpaceOnUse">
      <stop offset="0" stop-color="#7FA6DE"/>
      <stop offset="1" stop-color="#A98FDE"/>
    </linearGradient>
    <linearGradient id="g6" x1="214.00" y1="512.00" x2="301.28" y2="301.28" gradientUnits="userSpaceOnUse">
      <stop offset="0" stop-color="#A98FDE"/>
      <stop offset="1" stop-color="#D389C0"/>
    </linearGradient>
    <linearGradient id="g7" x1="301.28" y1="301.28" x2="512.00" y2="214.00" gradientUnits="userSpaceOnUse">
      <stop offset="0" stop-color="#D389C0"/>
      <stop offset="1" stop-color="#E8899A"/>
    </linearGradient>
  </defs>
  <path d="M 501.60 214.18 A 298.0 298.0 0 0 1 729.94 308.76" fill="none" stroke="url(#g0)" stroke-width="126.0"/>
  <path d="M 715.24 294.06 A 298.0 298.0 0 0 1 809.82 522.40" fill="none" stroke="url(#g1)" stroke-width="126.0"/>
  <path d="M 809.82 501.60 A 298.0 298.0 0 0 1 715.24 729.94" fill="none" stroke="url(#g2)" stroke-width="126.0"/>
  <path d="M 729.94 715.24 A 298.0 298.0 0 0 1 501.60 809.82" fill="none" stroke="url(#g3)" stroke-width="126.0"/>
  <path d="M 522.40 809.82 A 298.0 298.0 0 0 1 294.06 715.24" fill="none" stroke="url(#g4)" stroke-width="126.0"/>
  <path d="M 308.76 729.94 A 298.0 298.0 0 0 1 214.18 501.60" fill="none" stroke="url(#g5)" stroke-width="126.0"/>
  <path d="M 214.18 522.40 A 298.0 298.0 0 0 1 308.76 294.06" fill="none" stroke="url(#g6)" stroke-width="126.0"/>
  <path d="M 294.06 308.76 A 298.0 298.0 0 0 1 522.40 214.18" fill="none" stroke="url(#g7)" stroke-width="126.0"/>
</svg>
